<svg width="110" height="110" viewBox="0 0 110 110" fill="none" xmlns="http://www.w3.org/2000/svg">
<g clip-path="url(#clip0)">
<rect width="109.26" height="109.26" rx="54.63" fill="white"/>
<path d="M73.57 44.62C72.97 38.36 67.57 36.26 60.74 35.62V27H55.46V35.46C54.07 35.46 52.65 35.46 51.24 35.46V27H46V35.68H35.29V41.33C35.29 41.33 39.19 41.26 39.13 41.33C39.8332 41.2526 40.539 41.4513 41.0986 41.8841C41.6582 42.3168 42.028 42.95 42.13 43.65V67.41C42.115 67.6569 42.0506 67.8983 41.9407 68.1198C41.8307 68.3414 41.6775 68.5387 41.49 68.7C41.306 68.8644 41.0907 68.9899 40.857 69.0689C40.6233 69.148 40.376 69.179 40.13 69.16C40.2 69.22 36.29 69.16 36.29 69.16L35.29 75.47H45.9V84.29H51.18V75.6H55.4V84.25H60.69V75.53C69.61 74.99 75.83 72.79 76.61 64.44C77.24 57.72 74.08 54.72 69.03 53.51C72.1 52 74 49.2 73.57 44.62ZM66.17 63.4C66.17 69.96 54.93 69.21 51.35 69.21V57.57C54.93 57.58 66.17 56.55 66.17 63.4ZM63.72 47C63.72 53 54.34 52.27 51.36 52.27V41.69C54.34 41.69 63.72 40.75 63.72 47Z" fill="#F09242"/>
</g>
<defs>
<clipPath id="clip0">
<rect width="109.26" height="109.26" fill="white"/>
</clipPath>
</defs>
</svg>
